<?xml version="1.0" encoding="UTF-8"?>
<svg width="400" height="400" viewBox="0 0 400 400" fill="none" xmlns="http://www.w3.org/2000/svg">
  <!-- Background Circle -->
  <circle cx="200" cy="200" r="200" fill="#F5F5F5"/>

  <!-- ML Network Background -->
  <g opacity="0.1">
    <circle cx="120" cy="120" r="10" fill="#4285F4"/>
    <circle cx="180" cy="100" r="10" fill="#34A853"/>
    <circle cx="240" cy="130" r="10" fill="#FBBC05"/>
    <circle cx="280" cy="180" r="10" fill="#EA4335"/>
    <circle cx="240" cy="240" r="10" fill="#4285F4"/>
    <circle cx="180" cy="280" r="10" fill="#34A853"/>
    <circle cx="120" cy="240" r="10" fill="#FBBC05"/>

    <line x1="120" y1="120" x2="180" y2="100" stroke="#4285F4" stroke-width="2"/>
    <line x1="180" y1="100" x2="240" y2="130" stroke="#34A853" stroke-width="2"/>
    <line x1="240" y1="130" x2="280" y2="180" stroke="#FBBC05" stroke-width="2"/>
    <line x1="280" y1="180" x2="240" y2="240" stroke="#EA4335" stroke-width="2"/>
    <line x1="240" y1="240" x2="180" y2="280" stroke="#4285F4" stroke-width="2"/>
    <line x1="180" y1="280" x2="120" y2="240" stroke="#34A853" stroke-width="2"/>
    <line x1="120" y1="240" x2="120" y2="120" stroke="#FBBC05" stroke-width="2"/>
    <line x1="120" y1="120" x2="240" y2="130" stroke="#4285F4" stroke-width="2"/>
    <line x1="180" y1="100" x2="280" y2="180" stroke="#34A853" stroke-width="2"/>
    <line x1="240" y1="130" x2="240" y2="240" stroke="#FBBC05" stroke-width="2"/>
    <line x1="280" y1="180" x2="180" y2="280" stroke="#EA4335" stroke-width="2"/>
    <line x1="240" y1="240" x2="120" y2="240" stroke="#4285F4" stroke-width="2"/>
    <line x1="180" y1="280" x2="120" y2="120" stroke="#34A853" stroke-width="2"/>
  </g>

  <!-- Character Body -->
  <ellipse cx="200" cy="220" rx="100" ry="120" fill="#4CAF50" opacity="0.2"/>

  <!-- Head -->
  <circle cx="200" cy="150" r="70" fill="#FFDBB5"/>

  <!-- Eyes -->
  <circle cx="175" cy="140" r="10" fill="#333333"/>
  <circle cx="225" cy="140" r="10" fill="#333333"/>

  <!-- Smile -->
  <path d="M170 170 Q200 200 230 170" stroke="#333333" stroke-width="5" stroke-linecap="round"/>

  <!-- Hair -->
  <path d="M130 120 Q200 70 270 120" fill="#8B4513"/>
  <path d="M130 120 Q200 70 270 120" stroke="#8B4513" stroke-width="40"/>

  <!-- Shirt -->
  <path d="M150 220 L130 320 L270 320 L250 220" fill="#4285F4"/>

  <!-- Arms -->
  <path d="M150 240 L100 300" stroke="#FFDBB5" stroke-width="20" stroke-linecap="round"/>
  <path d="M250 240 L300 300" stroke="#FFDBB5" stroke-width="20" stroke-linecap="round"/>

  <!-- Laptop -->
  <rect x="130" y="280" width="140" height="10" rx="2" fill="#333333"/>
  <rect x="140" y="250" width="120" height="30" rx="2" fill="#333333"/>
  <rect x="145" y="255" width="110" height="20" rx="1" fill="#FFFFFF"/>
  <path d="M170 265 L180 260 L190 265 L200 260 L210 265 L220 260" stroke="#4285F4" stroke-width="2"/>

  <!-- Glasses -->
  <rect x="165" y="135" width="20" height="10" rx="5" fill="none" stroke="#333333" stroke-width="2"/>
  <rect x="215" y="135" width="20" height="10" rx="5" fill="none" stroke="#333333" stroke-width="2"/>
  <line x1="185" y1="140" x2="215" y2="140" stroke="#333333" stroke-width="2"/>

  <!-- Decorative Elements -->
  <circle cx="100" cy="100" r="15" fill="#4285F4" opacity="0.3"/>
  <circle cx="300" cy="100" r="20" fill="#34A853" opacity="0.3"/>
  <circle cx="80" cy="250" r="25" fill="#FBBC05" opacity="0.3"/>
  <circle cx="320" cy="250" r="15" fill="#EA4335" opacity="0.3"/>
  <circle cx="150" cy="350" r="20" fill="#4285F4" opacity="0.3"/>
  <circle cx="250" cy="350" r="25" fill="#34A853" opacity="0.3"/>
</svg>
