<?xml version="1.0" encoding="UTF-8"?>
<svg width="500" height="300" viewBox="0 0 500 300" fill="none" xmlns="http://www.w3.org/2000/svg">
  <!-- Desk -->
  <rect x="50" y="150" width="400" height="20" fill="#8B4513"/>
  <rect x="70" y="170" width="20" height="100" fill="#8B4513"/>
  <rect x="410" y="170" width="20" height="100" fill="#8B4513"/>

  <!-- Computer -->
  <rect x="200" y="80" width="100" height="70" rx="5" fill="#333333"/>
  <rect x="205" y="85" width="90" height="60" rx="3" fill="#4285F4" opacity="0.3"/>

  <!-- Code on Screen -->
  <path d="M215 95 L245 95" stroke="#FFFFFF" stroke-width="1"/>
  <path d="M215 100 L260 100" stroke="#FFFFFF" stroke-width="1"/>
  <path d="M220 105 L250 105" stroke="#FFFFFF" stroke-width="1"/>
  <path d="M215 110 L270 110" stroke="#FFFFFF" stroke-width="1"/>
  <path d="M220 115 L240 115" stroke="#FFFFFF" stroke-width="1"/>
  <path d="M215 120 L255 120" stroke="#FFFFFF" stroke-width="1"/>
  <path d="M220 125 L265 125" stroke="#FFFFFF" stroke-width="1"/>
  <path d="M215 130 L250 130" stroke="#FFFFFF" stroke-width="1"/>

  <!-- Neural Network Visualization on Screen -->
  <circle cx="275" cy="100" r="5" fill="#FFFFFF" opacity="0.8"/>
  <circle cx="275" cy="120" r="5" fill="#FFFFFF" opacity="0.8"/>
  <circle cx="275" cy="140" r="5" fill="#FFFFFF" opacity="0.8"/>

  <circle cx="295" cy="90" r="5" fill="#FFFFFF" opacity="0.8"/>
  <circle cx="295" cy="110" r="5" fill="#FFFFFF" opacity="0.8"/>
  <circle cx="295" cy="130" r="5" fill="#FFFFFF" opacity="0.8"/>
  <circle cx="295" cy="150" r="5" fill="#FFFFFF" opacity="0.8"/>

  <line x1="275" y1="100" x2="295" y2="90" stroke="#FFFFFF" stroke-width="1" opacity="0.5"/>
  <line x1="275" y1="100" x2="295" y2="110" stroke="#FFFFFF" stroke-width="1" opacity="0.5"/>
  <line x1="275" y1="100" x2="295" y2="130" stroke="#FFFFFF" stroke-width="1" opacity="0.5"/>
  <line x1="275" y1="120" x2="295" y2="90" stroke="#FFFFFF" stroke-width="1" opacity="0.5"/>
  <line x1="275" y1="120" x2="295" y2="110" stroke="#FFFFFF" stroke-width="1" opacity="0.5"/>
  <line x1="275" y1="120" x2="295" y2="130" stroke="#FFFFFF" stroke-width="1" opacity="0.5"/>
  <line x1="275" y1="120" x2="295" y2="150" stroke="#FFFFFF" stroke-width="1" opacity="0.5"/>
  <line x1="275" y1="140" x2="295" y2="110" stroke="#FFFFFF" stroke-width="1" opacity="0.5"/>
  <line x1="275" y1="140" x2="295" y2="130" stroke="#FFFFFF" stroke-width="1" opacity="0.5"/>
  <line x1="275" y1="140" x2="295" y2="150" stroke="#FFFFFF" stroke-width="1" opacity="0.5"/>

  <rect x="240" y="150" width="20" height="10" fill="#333333"/>
  <rect x="220" y="160" width="60" height="5" fill="#333333"/>

  <!-- Coffee Mug -->
  <rect x="120" y="120" width="30" height="30" rx="5" fill="#8B4513"/>
  <rect x="150" y="125" width="5" height="20" rx="2" fill="#8B4513"/>
  <path d="M125 125 L145 125" stroke="white" stroke-width="2"/>
  <text x="130" y="140" font-size="10" fill="white">ML</text>

  <!-- Books/Documentation -->
  <rect x="350" y="110" width="40" height="40" rx="2" fill="#34A853" opacity="0.5"/>
  <rect x="355" y="105" width="40" height="40" rx="2" fill="#FBBC05" opacity="0.5"/>
  <rect x="360" y="100" width="40" height="40" rx="2" fill="#EA4335" opacity="0.5"/>
  <path d="M365 110 L385 110" stroke="white" stroke-width="1"/>
  <path d="M365 115 L390 115" stroke="white" stroke-width="1"/>
  <path d="M365 120 L380 120" stroke="white" stroke-width="1"/>

  <!-- Notebook with ML Formulas -->
  <rect x="100" y="130" width="40" height="20" transform="rotate(-10 100 130)" fill="#F5F5F5"/>
  <path d="M105 125 L125 122" stroke="#333333" stroke-width="0.5"/>
  <path d="M107 130 L127 127" stroke="#333333" stroke-width="0.5"/>
  <path d="M109 135 L129 132" stroke="#333333" stroke-width="0.5"/>
  <text x="110" y="130" font-size="5" transform="rotate(-10 110 130)" fill="#333333">y = f(Wx+b)</text>

  <!-- Cloud Icons (representing cloud computing) -->
  <path d="M150 100 C150 90 160 85 170 90 C175 80 190 80 195 90 C205 85 215 90 215 100 C215 110 205 115 195 115 C190 120 175 120 170 115 C160 115 150 110 150 100Z" fill="#4285F4" opacity="0.3"/>

  <!-- Decorative Elements (Google Colors) -->
  <circle cx="50" cy="50" r="20" fill="#4285F4" opacity="0.2"/>
  <circle cx="450" cy="50" r="25" fill="#34A853" opacity="0.2"/>
  <circle cx="250" cy="30" r="15" fill="#FBBC05" opacity="0.2"/>
  <circle cx="350" cy="40" r="10" fill="#EA4335" opacity="0.2"/>
</svg>
